<svg xmlns="http://www.w3.org/2000/svg" viewBox="0 0 100 100"><path d="M9.314 51.712c1.731-3.958 2.317-8.108 5.507-11.303 3.597-3.604 9.278-6.113 13.972-7.909 10.905-4.176 24.052-1.386 30.646 8.639 8.161 12.404-12.567 24.12-21.906 26.452-3.069.767-6.248 1.007-9.397 1.137-3.764.156-6.521-1.3-9.791-2.861-3.621-1.728-6.483-2.76-7.794-7.026-.752-2.451-.563-5.303-.801-7.841-.09-.955-1.591-.963-1.5 0 .521 5.535.222 10.617 5.078 14.207 5.832 4.311 12.703 5.388 19.661 4.674 7.189-.737 13.875-3.42 19.595-7.802 3.966-3.038 9.999-8.835 10.134-14.316.335-13.589-16.173-19.535-27.319-18.373-6.128.639-11.768 3.523-17.006 6.588-2.26 1.322-4.9 3.082-6.373 5.311-1.977 2.993-2.579 6.418-4 9.667-.384.876.908 1.641 1.294.756z"/><path d="M26.75 52.5c.112-5.576 14.541-10.778 16.693-4.634l.524-.922c-2.285.854-3.055 3.271-5.679 3.758a57.555 57.555 0 0 0-4.24.955c-.728.193-1.46.362-2.197.506-1.313.28-4.407-.533-5.473.151.811-.521.059-1.819-.758-1.295-.526.338-.623.535-.704 1.147-.032.242.163.541.371.647 3.378 1.724 6.708.938 10.222.008 1.645-.435 4.03-.38 5.479-1.286 1.179-.737 2.197-2.706 3.377-3.147.362-.135.668-.512.524-.922-2.803-8-19.494-2.246-19.641 5.032-.018.97 1.482.968 1.502.002z"/><path d="M11.353 63.878c4.593 6.567 10.108 12.603 18.199 14.236 8.643 1.745 15.535-1.812 23.026-5.569 6.431-3.225 10.936-8.945 12.158-15.972.831-4.774 1.109-12.352-3.857-15.055-.851-.462-1.607.833-.758 1.295 4.896 2.665 3.714 10.997 2.762 15.471-1.338 6.287-6.761 10.808-12.262 13.567-6.847 3.434-12.854 5.955-20.671 4.816-7.528-1.097-13.153-7.614-17.303-13.547-.549-.785-1.85-.037-1.294.758z"/><path d="M41.199 29.723c15.315-6.185 36.735-11.192 46.199 6.787 4.187 7.952 2.145 17.736-4.985 23.071-6.767 5.064-14.274 5.838-22.413 6.002-.966.02-.968 1.52 0 1.5 8.896-.18 17.357-1.138 24.462-7.177 6.405-5.443 7.795-13.73 5.32-21.553-2.463-7.783-9.225-12.839-16.76-15.096-10.712-3.208-22.361 1.037-32.222 5.019-.884.358-.498 1.809.399 1.447zM16.454 47.981c2.29 1.042 4.756.954 7.213.769.958-.072.966-1.573 0-1.5-2.145.162-4.444.352-6.455-.564-.874-.397-1.637.895-.758 1.295z"/><path d="M18.801 45.89c1.708.352 3.124 1.309 4.653 2.091.859.439 1.619-.854.758-1.295-1.643-.84-3.179-1.865-5.013-2.242-.944-.194-1.345 1.251-.398 1.446zM21.634 43.89c2.138.825 4.236 1.633 6.533 1.86.963.095.953-1.406 0-1.5-2.146-.212-4.141-1.037-6.135-1.806-.903-.349-1.291 1.102-.398 1.446zM25.686 40.045c.616.876 1.163 1.798 1.786 2.67.473.661.999 1.426 1.861 1.535.958.121.946-1.381 0-1.5.325.041-.128-.243-.254-.388-.282-.327-.521-.694-.761-1.051-.453-.67-.872-1.362-1.338-2.022-.551-.785-1.853-.037-1.294.756zM29.02 38.712c.752.976 1.274 2.131 1.947 3.163.245.376.566.932 1.04 1.052.638.162 1.052-.337 1.076-.926.039-.968-1.461-.964-1.5 0 .02-.472 1.09-.356.982-.466-.08-.083-.155-.198-.236-.315-.265-.387-.502-.794-.741-1.198-.41-.69-.782-1.428-1.273-2.066-.582-.756-1.886-.01-1.295.756zM32.353 38.045a30.76 30.76 0 0 0 2.333 3.833c.31.438 1.005.53 1.295 0 .226-.411.377-.745.437-1.211.123-.958-1.379-.946-1.5 0a4.517 4.517 0 0 1-.231.455h1.295a30.88 30.88 0 0 1-2.333-3.833c-.44-.863-1.734-.104-1.296.756zM37.417 37.333c.175 1.5.215 3.014.936 4.378.451.856 1.746.098 1.295-.757-.586-1.111-.588-2.402-.73-3.622-.111-.947-1.613-.958-1.501.001zM40.943 39.634c-.378 1.016-.394 2.217.359 3.063.645.724 1.701-.341 1.061-1.061-.367-.413-.14-1.158.027-1.604.339-.907-1.112-1.296-1.447-.398zM46.186 40.289c-.677 1.109-1.67 2.424-1 3.757.434.865 1.728.105 1.295-.757-.145-.289.112-.723.239-.975.221-.44.505-.848.761-1.268.505-.829-.793-1.582-1.295-.757zM48.303 42.47c-.96 1.141-1.977 2.224-2.783 3.485-.522.817.775 1.569 1.295.757.737-1.153 1.671-2.138 2.549-3.182.617-.735-.438-1.801-1.061-1.06zM15.833 52.417c2.554-.17 5.106-.322 7.667-.333.967-.004.968-1.504 0-1.5-2.561.011-5.113.163-7.667.333-.96.064-.966 1.564 0 1.5zM20.046 56.481c1.395-.936 2.746-1.936 4.166-2.833.814-.515.062-1.813-.758-1.295-1.42.898-2.771 1.898-4.166 2.833-.798.536-.049 1.835.758 1.295zM22.697 58.197c.946-.769 1.805-1.639 2.666-2.5.685-.685-.376-1.745-1.061-1.061-.861.861-1.72 1.731-2.666 2.5-.75.611.317 1.665 1.061 1.061zM26.917 56.5c-.011 1.148-.103 2.292-.152 3.438-.035.799-.357 1.747-.225 2.53.06.354.414.509.723.55.384.051.679-.251.935-.488.711-.659-.353-1.717-1.061-1.061l.126.049.724.551c.062.366.147-.472.174-.6.104-.504.09-1.02.104-1.531.033-1.147.142-2.29.152-3.438.009-.968-1.491-.967-1.5 0zM30.276 55.866c.445 1.971.37 4.006.667 6 .052.346.42.522.724.551l.197.019c.32.03.65-.25.724-.551.039-.174.085-.347.136-.519.257-.934-1.19-1.33-1.447-.398-.05.171-.096.344-.136.518l.724-.55-.197-.019.724.551c-.298-1.998-.221-4.021-.667-6-.214-.944-1.661-.544-1.449.398zM34.686 54.878c.708 1.631 1.184 3.743 2.769 4.769.815.528 1.566-.771.758-1.295-1.253-.811-1.67-2.939-2.231-4.231-.386-.885-1.678-.12-1.296.757zM39.621 54.147c1.28.694 2.041 2.734 3.712 2.603.958-.076.965-1.576 0-1.5-.542.043-.974-.607-1.298-.964-.495-.544-1.004-1.08-1.656-1.434-.851-.46-1.608.835-.758 1.295zM44.468 50.89c1.342.348 3.118 1.133 4.411.257.796-.539.046-1.839-.758-1.295-.843.571-2.378-.182-3.255-.409-.937-.242-1.334 1.205-.398 1.447zM17.02 68.878c.76 1.136 1.573 2.258 2.617 3.152.73.625 1.797-.431 1.061-1.061-.952-.815-1.689-1.812-2.383-2.848-.536-.799-1.836-.049-1.295.757z"/><path d="M19.943 70.033c.688 1.661 1.624 3.162 2.576 4.679.513.817 1.811.065 1.295-.757-.878-1.399-1.791-2.789-2.424-4.321-.364-.881-1.816-.495-1.447.399zM22.97 71.197c1.034 1.239 2.097 3.672 4.03 3.553.961-.06.967-1.56 0-1.5-.654.041-1.172-.713-1.525-1.174-.491-.64-.927-1.319-1.444-1.939-.621-.744-1.677.323-1.061 1.06zM26.853 70.212c.934 1.489 1.943 2.958 3.436 3.936.483.317 1.129-.101 1.129-.647v-.667c0-.967-1.5-.967-1.5 0v.667l1.129-.647c-1.268-.831-2.107-2.138-2.898-3.397-.514-.819-1.812-.067-1.296.755zM31.137 71.197c.79.958 1.502 2.06 2.896 1.859.405-.058.622-.566.524-.922-.119-.431-.519-.582-.923-.524-.203.029-.441-.289-.554-.407-.317-.334-.59-.711-.883-1.066-.616-.747-1.671.32-1.06 1.06zM33.353 69.712c.727 1.277 1.459 2.692 2.948 3.178.922.301 1.313-1.147.398-1.446-1.03-.336-1.559-1.623-2.052-2.489-.477-.84-1.774-.085-1.294.757zM37.47 70.697c.524.673 1.192 1.229 1.998 1.526.909.336 1.298-1.114.398-1.446-.547-.202-.987-.693-1.336-1.14-.252-.323-.798-.262-1.061 0-.315.315-.25.738.001 1.06zM40.443 68.366c.193.911.505 1.839.909 2.679.419.872 1.712.11 1.295-.757-.309-.642-.594-1.549-.757-2.321-.2-.946-1.646-.544-1.447.399zM42.75 68c.021.872.253 1.711.526 2.533.305.913 1.754.522 1.447-.398-.231-.692-.456-1.399-.474-2.134-.022-.967-1.522-.969-1.499-.001zM47.25 64.833c-.007.951-.303 2.504.553 3.197.744.603 1.812-.452 1.061-1.061-.171-.139-.135-.544-.14-.772-.009-.455.023-.91.026-1.364.007-.967-1.493-.966-1.5 0zM50.609 64.033c.352.921.532 1.896.834 2.833.296.917 1.745.524 1.447-.398-.303-.938-.482-1.912-.834-2.833-.341-.895-1.791-.508-1.447.398zM54.276 61.634c-.189.708-.058 1.421.243 2.078.402.878 1.695.116 1.295-.757a1.392 1.392 0 0 1-.091-.922c.251-.936-1.197-1.332-1.447-.399zM57.917 57v4c0 .967 1.5.967 1.5 0v-4c0-.967-1.5-.967-1.5 0zM60.943 55.199c.142.769.104 1.534-.167 2.269-.335.91 1.115 1.298 1.447.398.364-.988.354-2.041.167-3.065-.174-.951-1.619-.547-1.447.398z"/><path d="M29.303 75.197c.869 1.061 2.051 3.37 3.697 3.22.955-.087.964-1.588 0-1.5-.495.045-.999-.704-1.278-1.034-.476-.563-.891-1.176-1.358-1.746-.614-.749-1.67.319-1.061 1.06zM33.609 74.199c.556 1.423 1.883 3.7 3.757 3.024.903-.326.514-1.775-.398-1.446-.908.328-1.661-1.335-1.911-1.976-.348-.891-1.799-.504-1.448.398zM38.853 74.378c.55 1.052 1.654 2.079 2.859 1.269.798-.537.048-1.836-.758-1.295-.378.254-.663-.456-.807-.731-.448-.857-1.742-.099-1.294.757zM42.917 72.167c.027 1.02.389 1.984 1.384 2.39.379.155.824-.165.923-.524.118-.43-.146-.768-.524-.922-.26-.106-.276-.729-.282-.943-.026-.966-1.527-.969-1.501-.001zM46.917 70.167c.014.948.195 1.853.603 2.711.414.874 1.708.112 1.295-.757-.29-.612-.388-1.283-.397-1.955-.015-.965-1.515-.967-1.501.001zM51.109 69.134c-.146.786-.192 1.568-.192 2.366-.001.967 1.499.967 1.5 0 0-.662.018-1.315.14-1.967.176-.946-1.27-1.349-1.448-.399zM54.443 67.134c-.166.834-.345 1.679-.36 2.533-.018.968 1.482.966 1.5 0 .014-.723.166-1.428.308-2.134.188-.945-1.257-1.347-1.448-.399zM57.443 65.533c.115.274.139.506.14.801.005.967 1.505.967 1.5 0-.002-.414-.031-.815-.192-1.199-.158-.377-.49-.643-.923-.524-.357.097-.683.544-.525.922zM46.532 29.557c2.418-.536 4.646-1.75 7.135-1.973.955-.086.964-1.586 0-1.5-2.642.237-4.972 1.459-7.533 2.027-.945.208-.544 1.655.398 1.446z"/><path d="M53.046 29.647c1.008-.444 2.107-1.15 3.255-.924.944.186 1.348-1.26.398-1.446-1.622-.319-2.972.441-4.411 1.076-.883.389-.119 1.681.758 1.294zM54.546 32.147c.957-.63 1.947-1.194 3.121-1.23.965-.03.968-1.53 0-1.5-1.445.044-2.691.653-3.879 1.436-.804.529-.053 1.829.758 1.294zM58.032 32.723c1.346-.499 2.683-.923 4.135-.806.965.078.957-1.423 0-1.5-1.578-.127-3.069.317-4.533.86-.899.333-.511 1.783.398 1.446zM59.532 35.223c1.463-.476 2.925-.784 4.468-.806.967-.014.968-1.514 0-1.5-1.672.024-3.28.344-4.866.86-.916.298-.525 1.746.398 1.446zM61.866 37.89c.968-.354 2.185-.81 2.937.14.601.758 1.654-.311 1.061-1.061-1.105-1.396-2.927-1.063-4.396-.526-.901.33-.512 1.78.398 1.447zM64.032 40.723c1.033-.262 2.303-.776 3.256-.076.781.574 1.528-.729.758-1.295-1.313-.965-2.981-.439-4.412-.076-.938.239-.539 1.685.398 1.447zM65.167 43.917c1.484-.154 3.249-.536 4.621.23.846.472 1.602-.824.758-1.295-1.66-.927-3.573-.624-5.379-.436-.952.1-.962 1.601 0 1.501zM66.667 48.417c1.271.138 2.587.007 3.801.473.904.348 1.292-1.103.398-1.446-1.338-.515-2.799-.375-4.199-.527-.961-.105-.951 1.397 0 1.5zM68.366 52.89c.387-.089.787-.146 1.104.14.716.646 1.78-.412 1.061-1.061-.74-.668-1.62-.743-2.562-.526s-.544 1.664.397 1.447zM67.5 57.75c.145.003.388-.03.443.116.34.896 1.791.507 1.447-.398-.33-.87-.986-1.199-1.891-1.218-.967-.02-.965 1.48.001 1.5zM65.866 62.39a2.174 2.174 0 0 1 1.268 0c.93.274 1.324-1.173.398-1.446a3.66 3.66 0 0 0-2.064 0c-.926.273-.531 1.721.398 1.446z"/><path d="M57.212 27.481c2.183-.924 4.396-1.679 6.788-1.731.966-.021.968-1.521 0-1.5-2.668.059-5.111.906-7.546 1.936-.888.376-.122 1.668.758 1.295zM61.212 29.314c1.336-.606 2.619-1.351 4.121-1.397.965-.03.968-1.53 0-1.5-1.788.055-3.287.88-4.879 1.603-.88.398-.116 1.691.758 1.294zM64.546 31.647c.421-.272 1.267-.886 1.757-.45.721.64 1.785-.417 1.061-1.061-1.107-.984-2.462-.504-3.575.216-.81.523-.059 1.822.757 1.295zM68.032 34.557a8.598 8.598 0 0 1 2.602 0c.946.146 1.353-1.3.398-1.446a11 11 0 0 0-3.398 0c-.954.146-.547 1.591.398 1.446zM70.866 38.057c1.109-.235 2.503-.329 2.91.976.288.92 1.735.527 1.447-.398-.68-2.176-2.79-2.44-4.756-2.024-.946.2-.544 1.645.399 1.446zM72.833 43.25c1.089.008 1.993.172 2.804.947.698.668 1.761-.391 1.061-1.061-1.1-1.052-2.374-1.376-3.864-1.387-.969-.006-.968 1.494-.001 1.501zM75.379 48.314a1.13 1.13 0 0 1 .389-.116c.077-.006-.027-.115.009.001.294.917 1.743.525 1.447-.398-.395-1.23-1.587-1.255-2.603-.781-.876.408-.113 1.701.758 1.294zM72.333 52.583c.853-.099 3.301-.733 3.61.449.246.935 1.692.538 1.447-.398-.589-2.243-3.328-1.751-5.058-1.551-.948.11-.959 1.612.001 1.5zM73.866 57.557c.294-.115.59-.217.896-.296.138-.036.27-.056.411-.062.231-.01-.01-.01-.063-.166.312.91 1.762.519 1.447-.398-.468-1.361-2.079-.92-3.089-.524-.38.149-.642.497-.524.922.1.363.541.673.922.524zM73.379 61.147c.495-.226 1.069-.209 1.589-.091.941.214 1.342-1.232.398-1.446-.943-.215-1.861-.161-2.745.242-.371.169-.459.7-.269 1.026.222.379.655.439 1.027.269zM70.199 64.39a95.773 95.773 0 0 0 3.847-1.576c.887-.38.121-1.671-.758-1.295-1.154.495-2.312.98-3.487 1.424-.896.34-.508 1.79.398 1.447z"/><path d="M66.866 27.057c2.241-.365 4.367-1.255 6.634-1.473.954-.092.963-1.593 0-1.5-2.408.232-4.655 1.139-7.032 1.527-.953.155-.548 1.6.398 1.446zM71.379 29.814c1.307-.588 2.801-1.471 4.255-.924.907.341 1.295-1.109.398-1.446-1.863-.701-3.735.321-5.411 1.076-.881.396-.117 1.688.758 1.294zM74.866 32.223c.801-.319 1.595-.621 2.467-.64.966-.021.968-1.521 0-1.5-1.014.022-1.933.321-2.865.693-.38.151-.642.495-.524.922.099.363.542.677.922.525zM74.212 36.314c1.792-.961 4.431-2.312 6.409-1.167.839.485 1.594-.811.758-1.295-2.521-1.458-5.604-.077-7.925 1.167-.852.458-.095 1.752.758 1.295zM78.212 40.147c1.112-.481 2.214-1.002 3.455-.897.964.082.956-1.419 0-1.5-1.508-.127-2.864.519-4.213 1.103-.886.383-.12 1.674.758 1.294zM80.199 43.557c.801-.32 1.596-.621 2.468-.64.966-.021.968-1.521 0-1.5-1.015.022-1.934.32-2.866.693-.38.151-.642.495-.524.922.099.362.542.676.922.525zM78.879 48.147c1.426-.617 2.891-1.01 4.454-.897l-.647-.372-.076.256c-.312.918 1.137 1.309 1.447.398 1.118-3.287-4.69-1.219-5.936-.68-.886.383-.121 1.675.758 1.295zM78.532 53.057c1.813-.689 4.099-2.248 6.102-1.667.931.271 1.325-1.177.398-1.446-2.38-.691-4.751.851-6.898 1.667-.896.339-.507 1.79.398 1.446zM79.546 56.481c.881-.489 1.766-.97 2.671-1.414.705-.347 1.635-.886 2.45-.817.964.082.956-1.419 0-1.5-.919-.078-1.863.409-2.677.772-1.099.489-2.151 1.081-3.202 1.664-.845.47-.089 1.765.758 1.295zM79.212 60.147c1.702-1.024 3.387-2.065 5.32-2.591.933-.253.536-1.7-.398-1.446-2.058.559-3.867 1.651-5.68 2.742-.827.499-.073 1.795.758 1.295z"/><path d="M79.046 30.981c1.739-.79 3.479-1.565 5.32-2.091.929-.265.533-1.712-.398-1.446-1.964.561-3.823 1.399-5.68 2.242-.879.399-.116 1.692.758 1.295zM82.379 33.147c.547-.319 1.602-1.278 2.242-.833.797.554 1.546-.747.758-1.295-1.274-.886-2.649.188-3.758.833-.835.487-.08 1.783.758 1.295zM84.879 35.314a5.817 5.817 0 0 1 1.653-.758h-.398c.268.099-.272-.096-.114-.435-.407.871.886 1.632 1.295.757.348-.743.16-1.419-.646-1.718-.771-.286-1.915.449-2.547.859-.809.524-.058 1.824.757 1.295zM84.046 39.981a21.866 21.866 0 0 1 2.087-.79c.361-.115 2.099-.724 2.364-.391l-.22-.53-.141.034c-.746.617.321 1.672 1.061 1.061 1.062-.88.45-2.139-.865-2.105-1.754.045-3.46.734-5.044 1.427-.884.386-.12 1.678.758 1.294zM85.199 43.89c.632-.212 1.261-.43 1.915-.562.587-.119.911-.081.995.538.13.955 1.575.547 1.447-.398-.337-2.478-3.204-1.544-4.756-1.024-.911.306-.521 1.755.399 1.446zM87.212 47.314c.843-.36 1.823-.848 2.756-.591.934.258 1.33-1.189.398-1.446-1.368-.377-2.671.212-3.912.743-.887.378-.122 1.67.758 1.294zM86.366 51.557c1.332-.344 2.634-.806 4-1 .954-.136.547-1.581-.398-1.446-1.367.194-2.668.656-4 1-.937.241-.539 1.688.398 1.446zM88.532 53.557c1.081-.382 2.038-.986 3.014-1.576.826-.499.073-1.796-.758-1.295-.858.518-1.704 1.088-2.654 1.424-.905.321-.516 1.77.398 1.447z"/></svg>